<mxfile host="Electron" agent="Mozilla/5.0 (Macintosh; Intel Mac OS X 10_15_7) AppleWebKit/537.36 (KHTML, like Gecko) draw.io/26.2.2 Chrome/134.0.6998.178 Electron/35.1.2 Safari/537.36" version="26.2.2">
  <diagram name="Page-1" id="nFc1UjsxoZWa22iFPWRF">
    <mxGraphModel dx="1133" dy="838" grid="1" gridSize="10" guides="1" tooltips="1" connect="1" arrows="1" fold="1" page="1" pageScale="1" pageWidth="1169" pageHeight="827" math="0" shadow="0">
      <root>
        <mxCell id="0" />
        <mxCell id="1" parent="0" />
        <mxCell id="E4jNNeP_R-RBsSuZ75dX-36" value="" style="rounded=0;whiteSpace=wrap;html=1;fillColor=#d0cee2;strokeColor=#56517e;" vertex="1" parent="1">
          <mxGeometry x="700" y="139" width="230" height="551" as="geometry" />
        </mxCell>
        <mxCell id="E4jNNeP_R-RBsSuZ75dX-35" value="" style="rounded=0;whiteSpace=wrap;html=1;fillColor=#bac8d3;strokeColor=#23445d;" vertex="1" parent="1">
          <mxGeometry x="310" y="139" width="370" height="551" as="geometry" />
        </mxCell>
        <mxCell id="E4jNNeP_R-RBsSuZ75dX-12" style="edgeStyle=orthogonalEdgeStyle;rounded=0;orthogonalLoop=1;jettySize=auto;html=1;exitX=0.5;exitY=1;exitDx=0;exitDy=0;entryX=0.5;entryY=0;entryDx=0;entryDy=0;" edge="1" parent="1" source="E4jNNeP_R-RBsSuZ75dX-3" target="E4jNNeP_R-RBsSuZ75dX-5">
          <mxGeometry relative="1" as="geometry" />
        </mxCell>
        <mxCell id="E4jNNeP_R-RBsSuZ75dX-3" value="&lt;font style=&quot;font-size: 18px;&quot;&gt;Setup sensor&lt;/font&gt;" style="rounded=1;whiteSpace=wrap;html=1;absoluteArcSize=1;arcSize=14;strokeWidth=2;fillColor=#dae8fc;strokeColor=#6c8ebf;" vertex="1" parent="1">
          <mxGeometry x="370" y="230" width="120" height="70" as="geometry" />
        </mxCell>
        <mxCell id="E4jNNeP_R-RBsSuZ75dX-13" style="edgeStyle=orthogonalEdgeStyle;rounded=0;orthogonalLoop=1;jettySize=auto;html=1;exitX=0.5;exitY=1;exitDx=0;exitDy=0;exitPerimeter=0;entryX=0.5;entryY=0;entryDx=0;entryDy=0;" edge="1" parent="1" source="E4jNNeP_R-RBsSuZ75dX-4" target="E4jNNeP_R-RBsSuZ75dX-3">
          <mxGeometry relative="1" as="geometry" />
        </mxCell>
        <mxCell id="E4jNNeP_R-RBsSuZ75dX-4" value="&lt;font style=&quot;font-size: 18px;&quot;&gt;Start&lt;/font&gt;" style="strokeWidth=2;html=1;shape=mxgraph.flowchart.terminator;whiteSpace=wrap;strokeColor=#b85450;fillColor=#f8cecc;" vertex="1" parent="1">
          <mxGeometry x="380" y="150" width="100" height="60" as="geometry" />
        </mxCell>
        <mxCell id="E4jNNeP_R-RBsSuZ75dX-5" value="&lt;font style=&quot;font-size: 18px;&quot;&gt;Initialise DMP&lt;/font&gt;" style="rounded=1;whiteSpace=wrap;html=1;absoluteArcSize=1;arcSize=14;strokeWidth=2;fillColor=#dae8fc;strokeColor=#6c8ebf;" vertex="1" parent="1">
          <mxGeometry x="370" y="320" width="120" height="70" as="geometry" />
        </mxCell>
        <mxCell id="E4jNNeP_R-RBsSuZ75dX-10" value="&lt;span&gt;No&lt;/span&gt;" style="edgeStyle=orthogonalEdgeStyle;rounded=0;orthogonalLoop=1;jettySize=auto;html=1;exitX=0.5;exitY=1;exitDx=0;exitDy=0;exitPerimeter=0;entryX=0.5;entryY=0;entryDx=0;entryDy=0;labelBackgroundColor=none;" edge="1" parent="1" source="E4jNNeP_R-RBsSuZ75dX-6" target="E4jNNeP_R-RBsSuZ75dX-8">
          <mxGeometry x="-0.194" y="10" relative="1" as="geometry">
            <mxPoint as="offset" />
          </mxGeometry>
        </mxCell>
        <mxCell id="E4jNNeP_R-RBsSuZ75dX-15" value="&lt;span&gt;Yes&lt;/span&gt;" style="edgeStyle=orthogonalEdgeStyle;rounded=0;orthogonalLoop=1;jettySize=auto;html=1;exitX=1;exitY=0.5;exitDx=0;exitDy=0;exitPerimeter=0;entryX=0;entryY=0.5;entryDx=0;entryDy=0;labelBackgroundColor=none;" edge="1" parent="1" source="E4jNNeP_R-RBsSuZ75dX-6" target="E4jNNeP_R-RBsSuZ75dX-14">
          <mxGeometry x="-0.258" y="8" relative="1" as="geometry">
            <mxPoint as="offset" />
          </mxGeometry>
        </mxCell>
        <mxCell id="E4jNNeP_R-RBsSuZ75dX-6" value="&lt;font style=&quot;font-size: 18px;&quot;&gt;Has output stabilised?&lt;/font&gt;" style="strokeWidth=2;html=1;shape=mxgraph.flowchart.decision;whiteSpace=wrap;aspect=fixed;fillColor=#ffe6cc;strokeColor=#d79b00;" vertex="1" parent="1">
          <mxGeometry x="361.75" y="420" width="136.5" height="136.5" as="geometry" />
        </mxCell>
        <mxCell id="E4jNNeP_R-RBsSuZ75dX-8" value="&lt;font style=&quot;font-size: 18px;&quot;&gt;Delay 10ms&lt;/font&gt;" style="rounded=1;whiteSpace=wrap;html=1;absoluteArcSize=1;arcSize=14;strokeWidth=2;fillColor=#d5e8d4;strokeColor=#82b366;" vertex="1" parent="1">
          <mxGeometry x="370" y="590" width="120" height="70" as="geometry" />
        </mxCell>
        <mxCell id="E4jNNeP_R-RBsSuZ75dX-9" style="edgeStyle=orthogonalEdgeStyle;rounded=0;orthogonalLoop=1;jettySize=auto;html=1;exitX=0;exitY=0.5;exitDx=0;exitDy=0;entryX=0;entryY=0.5;entryDx=0;entryDy=0;entryPerimeter=0;" edge="1" parent="1" source="E4jNNeP_R-RBsSuZ75dX-8" target="E4jNNeP_R-RBsSuZ75dX-6">
          <mxGeometry relative="1" as="geometry">
            <Array as="points">
              <mxPoint x="330" y="625" />
              <mxPoint x="330" y="488" />
            </Array>
          </mxGeometry>
        </mxCell>
        <mxCell id="E4jNNeP_R-RBsSuZ75dX-11" style="edgeStyle=orthogonalEdgeStyle;rounded=0;orthogonalLoop=1;jettySize=auto;html=1;exitX=0.5;exitY=1;exitDx=0;exitDy=0;entryX=0.5;entryY=0;entryDx=0;entryDy=0;entryPerimeter=0;" edge="1" parent="1" source="E4jNNeP_R-RBsSuZ75dX-5" target="E4jNNeP_R-RBsSuZ75dX-6">
          <mxGeometry relative="1" as="geometry" />
        </mxCell>
        <mxCell id="E4jNNeP_R-RBsSuZ75dX-25" style="edgeStyle=orthogonalEdgeStyle;rounded=0;orthogonalLoop=1;jettySize=auto;html=1;exitX=1;exitY=0.5;exitDx=0;exitDy=0;entryX=0;entryY=0.5;entryDx=0;entryDy=0;" edge="1" parent="1" source="E4jNNeP_R-RBsSuZ75dX-14" target="E4jNNeP_R-RBsSuZ75dX-19">
          <mxGeometry relative="1" as="geometry">
            <mxPoint x="710" y="480" as="targetPoint" />
            <Array as="points">
              <mxPoint x="690" y="488" />
              <mxPoint x="690" y="240" />
            </Array>
          </mxGeometry>
        </mxCell>
        <mxCell id="E4jNNeP_R-RBsSuZ75dX-26" style="edgeStyle=orthogonalEdgeStyle;rounded=0;orthogonalLoop=1;jettySize=auto;html=1;exitX=0.5;exitY=1;exitDx=0;exitDy=0;entryX=0.5;entryY=0;entryDx=0;entryDy=0;" edge="1" parent="1" source="E4jNNeP_R-RBsSuZ75dX-19" target="E4jNNeP_R-RBsSuZ75dX-20">
          <mxGeometry relative="1" as="geometry" />
        </mxCell>
        <mxCell id="E4jNNeP_R-RBsSuZ75dX-19" value="&lt;font style=&quot;font-size: 16px;&quot;&gt;Read latest quaternion&amp;nbsp;&lt;/font&gt;&lt;div&gt;&lt;font style=&quot;font-size: 16px;&quot;&gt;data from DMP&lt;/font&gt;&lt;/div&gt;" style="rounded=1;whiteSpace=wrap;html=1;absoluteArcSize=1;arcSize=14;strokeWidth=2;fillColor=#dae8fc;strokeColor=#6c8ebf;" vertex="1" parent="1">
          <mxGeometry x="740" y="200" width="120" height="80" as="geometry" />
        </mxCell>
        <mxCell id="E4jNNeP_R-RBsSuZ75dX-27" style="edgeStyle=orthogonalEdgeStyle;rounded=0;orthogonalLoop=1;jettySize=auto;html=1;exitX=0.5;exitY=1;exitDx=0;exitDy=0;entryX=0.5;entryY=0;entryDx=0;entryDy=0;" edge="1" parent="1" source="E4jNNeP_R-RBsSuZ75dX-20" target="E4jNNeP_R-RBsSuZ75dX-22">
          <mxGeometry relative="1" as="geometry" />
        </mxCell>
        <mxCell id="E4jNNeP_R-RBsSuZ75dX-20" value="&lt;font style=&quot;font-size: 18px;&quot;&gt;Calculate angle of tilt &amp;amp; heading&lt;/font&gt;" style="rounded=1;whiteSpace=wrap;html=1;absoluteArcSize=1;arcSize=14;strokeWidth=2;fillColor=#dae8fc;strokeColor=#6c8ebf;" vertex="1" parent="1">
          <mxGeometry x="740" y="300" width="120" height="80" as="geometry" />
        </mxCell>
        <mxCell id="E4jNNeP_R-RBsSuZ75dX-28" style="edgeStyle=orthogonalEdgeStyle;rounded=0;orthogonalLoop=1;jettySize=auto;html=1;exitX=0.5;exitY=1;exitDx=0;exitDy=0;entryX=0.5;entryY=0;entryDx=0;entryDy=0;" edge="1" parent="1" source="E4jNNeP_R-RBsSuZ75dX-22" target="E4jNNeP_R-RBsSuZ75dX-23">
          <mxGeometry relative="1" as="geometry" />
        </mxCell>
        <mxCell id="E4jNNeP_R-RBsSuZ75dX-22" value="&lt;font style=&quot;font-size: 18px;&quot;&gt;PID calculations&lt;/font&gt;" style="rounded=1;whiteSpace=wrap;html=1;absoluteArcSize=1;arcSize=14;strokeWidth=2;fillColor=#dae8fc;strokeColor=#6c8ebf;" vertex="1" parent="1">
          <mxGeometry x="740" y="400" width="120" height="80" as="geometry" />
        </mxCell>
        <mxCell id="E4jNNeP_R-RBsSuZ75dX-29" style="edgeStyle=orthogonalEdgeStyle;rounded=0;orthogonalLoop=1;jettySize=auto;html=1;exitX=0.5;exitY=1;exitDx=0;exitDy=0;entryX=0.5;entryY=0;entryDx=0;entryDy=0;" edge="1" parent="1" source="E4jNNeP_R-RBsSuZ75dX-23" target="E4jNNeP_R-RBsSuZ75dX-24">
          <mxGeometry relative="1" as="geometry" />
        </mxCell>
        <mxCell id="E4jNNeP_R-RBsSuZ75dX-23" value="&lt;font style=&quot;font-size: 18px;&quot;&gt;Calculate motor frequencies&lt;/font&gt;" style="rounded=1;whiteSpace=wrap;html=1;absoluteArcSize=1;arcSize=14;strokeWidth=2;fillColor=#dae8fc;strokeColor=#6c8ebf;" vertex="1" parent="1">
          <mxGeometry x="740" y="500" width="120" height="80" as="geometry" />
        </mxCell>
        <mxCell id="E4jNNeP_R-RBsSuZ75dX-32" style="edgeStyle=orthogonalEdgeStyle;rounded=0;orthogonalLoop=1;jettySize=auto;html=1;exitX=1;exitY=0.5;exitDx=0;exitDy=0;entryX=1;entryY=0.5;entryDx=0;entryDy=0;" edge="1" parent="1" source="E4jNNeP_R-RBsSuZ75dX-24" target="E4jNNeP_R-RBsSuZ75dX-19">
          <mxGeometry relative="1" as="geometry">
            <Array as="points">
              <mxPoint x="900" y="640" />
              <mxPoint x="900" y="240" />
            </Array>
          </mxGeometry>
        </mxCell>
        <mxCell id="E4jNNeP_R-RBsSuZ75dX-24" value="&lt;font style=&quot;font-size: 18px;&quot;&gt;Set PWM frequencies&lt;/font&gt;" style="rounded=1;whiteSpace=wrap;html=1;absoluteArcSize=1;arcSize=14;strokeWidth=2;fillColor=#dae8fc;strokeColor=#6c8ebf;" vertex="1" parent="1">
          <mxGeometry x="740" y="600" width="120" height="80" as="geometry" />
        </mxCell>
        <mxCell id="E4jNNeP_R-RBsSuZ75dX-14" value="&lt;font style=&quot;font-size: 18px;&quot;&gt;Initialise PWM channels&amp;nbsp;&lt;/font&gt;" style="rounded=1;whiteSpace=wrap;html=1;absoluteArcSize=1;arcSize=14;strokeWidth=2;fillColor=#dae8fc;strokeColor=#6c8ebf;" vertex="1" parent="1">
          <mxGeometry x="550" y="453.25" width="120" height="70" as="geometry" />
        </mxCell>
        <mxCell id="E4jNNeP_R-RBsSuZ75dX-37" value="&lt;font style=&quot;font-size: 20px;&quot;&gt;Setup Phase&lt;/font&gt;" style="rounded=0;whiteSpace=wrap;html=1;fillColor=none;strokeColor=none;" vertex="1" parent="1">
          <mxGeometry x="525" y="150" width="120" height="60" as="geometry" />
        </mxCell>
        <mxCell id="E4jNNeP_R-RBsSuZ75dX-38" value="&lt;font style=&quot;font-size: 20px;&quot;&gt;Main loop&lt;/font&gt;" style="rounded=0;whiteSpace=wrap;html=1;fillColor=none;strokeColor=none;" vertex="1" parent="1">
          <mxGeometry x="740" y="140" width="120" height="60" as="geometry" />
        </mxCell>
      </root>
    </mxGraphModel>
  </diagram>
</mxfile>
